<?xml version="1.0" encoding="utf-8"?>
<!-- Generator: Adobe Illustrator 16.0.0, SVG Export Plug-In . SVG Version: 6.00 Build 0)  -->
<!DOCTYPE svg PUBLIC "-//W3C//DTD SVG 1.1//EN" "http://www.w3.org/Graphics/SVG/1.1/DTD/svg11.dtd">
<svg version="1.1" id="Layer_1" xmlns="http://www.w3.org/2000/svg" xmlns:xlink="http://www.w3.org/1999/xlink" x="0px" y="0px"
	 width="520px" height="36px" viewBox="0 0 520 36" enable-background="new 0 0 520 36" xml:space="preserve">
<path fill="#353331" d="M33.62,19.968c0,3.25-2.425,5.701-5.925,5.701c-5.167,0-5.594-3.951-8.25-3.951h-0.876v3.818
	c0,3.976,3.498,7.182,3.498,7.182h-8.961c0,0,3.463-3.206,3.463-7.252v-3.748h-0.408c-2.656,0-3.55,3.903-8.342,3.903
	c-3.589,0-6.2-1.847-6.2-5.442c0-3.568,2.97-5.127,6.117-5.127c4.959,0,5.596,4.666,8.201,4.666h0.632v-1.893
	c0-3.598-4.549-2.898-4.549-8.398c0-3.959,2.484-6.144,5.583-6.144c2.586,0,5.396,2.394,5.396,6.019c0,4.879-4.43,5.437-4.43,8.757
	v1.659h0.732c2.604,0,2.96-4.79,8.561-4.79C30.945,14.928,33.62,16.718,33.62,19.968z"/>
<path fill="#FF503E" d="M79.269,4.156c-4.205-1.945-9.704-0.115-11.649,4.08c-1.945-4.195-7.444-6.027-11.648-4.08
	c-4.477,2.077-6.618,7.383-3.081,13.642c2.51,4.453,6.963,8.808,14.729,14.824c7.767-6.017,12.22-10.374,14.729-14.824
	C85.886,11.539,83.745,6.233,79.269,4.156z"/>
<polygon fill="#FF503E" points="117.692,1.75 130.619,17.844 117.692,34.25 104.619,18 "/>
<path fill="#353331" d="M158.94,27.744c2.594,0.33,6.06-1.266,8.06-3.273v4.051l-5.053,4.594h11.564L169,28.502v-3.979
	c1,1.785,5.017,3.625,7.567,3.221c5.312-0.854,7.682-6.67,4.483-11.471c-3.158-4.736-13.304-13.389-13.304-13.389
	s-10.139,8.662-13.295,13.389C151.25,21.074,153.573,27.061,158.94,27.744z"/>
<path fill="#FFFFFF" d="M232.552,19.968c0,3.25-2.425,5.701-5.925,5.701c-5.167,0-5.594-3.951-8.25-3.951h-0.876v3.818
	c0,3.976,3.498,7.182,3.498,7.182h-8.961c0,0,3.463-3.206,3.463-7.252v-3.748h-0.408c-2.656,0-3.55,3.903-8.342,3.903
	c-3.589,0-6.2-1.847-6.2-5.442c0-3.568,2.97-5.127,6.117-5.127c4.959,0,5.596,4.666,8.201,4.666h0.632v-1.893
	c0-3.598-4.549-2.898-4.549-8.398c0-3.959,2.484-6.144,5.583-6.144c2.586,0,5.396,2.394,5.396,6.019c0,4.879-4.43,5.437-4.43,8.757
	v1.659h0.732c2.604,0,2.96-4.79,8.561-4.79C229.877,14.928,232.552,16.718,232.552,19.968z"/>
<path fill="#FFFFFF" d="M278.201,4.156c-4.205-1.945-9.704-0.115-11.649,4.08c-1.945-4.195-7.444-6.027-11.648-4.08
	c-4.477,2.077-6.618,7.383-3.081,13.642c2.51,4.453,6.963,8.808,14.729,14.824c7.767-6.017,12.22-10.374,14.729-14.824
	C284.818,11.539,282.678,6.233,278.201,4.156z"/>
<polygon fill="#FFFFFF" points="316.625,1.75 329.552,17.844 316.625,34.25 303.552,18 "/>
<path fill="#FFFFFF" d="M357.906,27.744c2.594,0.33,6.094-1.266,8.094-3.273v4.051l-5.12,4.594h11.564L368,28.502v-3.979
	c1,1.785,4.982,3.625,7.533,3.221c5.312-0.854,7.666-6.67,4.467-11.471c-3.158-4.736-13.312-13.389-13.312-13.389
	s-10.126,8.662-13.282,13.389C350.204,21.074,352.539,27.061,357.906,27.744z"/>
<g>
	<path fill="#FFFFFF" d="M415.283,2.172c-2.092-0.967-4.824-0.058-5.793,2.028c-0.967-2.086-3.699-2.997-5.791-2.028
		c-2.225,1.033-3.291,3.671-1.532,6.784c1.249,2.214,3.463,4.379,7.323,7.37c3.862-2.991,6.076-5.158,7.325-7.37
		C418.574,5.843,417.509,3.205,415.283,2.172z"/>
	<path fill="#FFFFFF" d="M404.395,32.481c1.291,0.163,3.605-0.629,3.605-1.627v2.013l-1.708,2.248h5.752L409,32.856v-1.976
		c1,0.885,2.894,1.801,4.163,1.601c2.642-0.426,4.017-3.317,2.429-5.703c-1.572-2.355-6.516-6.656-6.516-6.656
		s-5.192,4.306-6.761,6.656C400.724,29.164,401.727,32.142,404.395,32.481z"/>
	<polygon fill="#FFFFFF" points="428.943,0.976 435.37,8.979 428.943,17.136 422.441,9.056 	"/>
	<path fill="#FFFFFF" d="M436.714,28.679c0,1.615-1.207,2.834-2.946,2.834c-2.569,0-2.781-1.965-4.103-1.965h-0.433v1.9
		c0,1.976,1.736,3.568,1.736,3.568h-4.453c0,0,1.721-1.593,1.721-3.604v-1.865h-0.205c-1.319,0-1.766,1.942-4.146,1.942
		c-1.783,0-3.084-0.918-3.084-2.708c0-1.772,1.477-2.549,3.044-2.549c2.465,0,2.781,2.321,4.078,2.321h0.313v-0.942
		c0-1.787-2.264-1.441-2.264-4.176c0-1.966,1.235-3.055,2.778-3.055c1.284,0,2.682,1.19,2.682,2.993c0,2.428-2.2,2.703-2.2,4.354
		v0.825h0.364c1.293,0,1.47-2.381,4.255-2.381C435.383,26.174,436.714,27.062,436.714,28.679z"/>
</g>
<g>
	<g>
		<path fill="#FFFFFF" d="M448.707,23.992 M454.371,15.752c-0.137-2.426,1.514-3.966,3.951-3.967c4.812-0.001,1.934,0,6.746,0
			c0.33,0,0.662,0,1.066,0c0,1.759,0,3.397,0,5.255c3.004-2.763,5.859-5.388,8.785-8.078c-2.936-2.696-5.785-5.318-8.826-8.111
			c0,1.927,0,3.593,0,5.307c-0.441,0-0.783,0-1.123,0c-4.938,0-2.184-0.018-7.121,0.004c-4.502,0.019-8.555,3.504-8.975,7.981"/>
		<path fill-rule="evenodd" clip-rule="evenodd" fill="#FFFFFF" d="M474.92,8.962c-2.936-2.696-5.785-5.318-8.826-8.111
			c0,1.927,0,3.593,0,5.307c-0.441,0-0.783,0-1.123,0c-4.938,0-2.184-0.018-7.121,0.004c-4.502,0.019-8.555,3.504-8.975,7.981
			l-0.051,9.625c1.396-1.377,5.547-5.239,5.547-5.239s0,0.749,0-2.776c0-2.478,1.514-3.966,3.951-3.967c4.812-0.001,1.934,0,6.746,0
			c0.33,0,0.662,0,1.066,0c0,1.759,0,3.397,0,5.255C469.139,14.277,471.994,11.652,474.92,8.962z"/>
	</g>
	<path fill-rule="evenodd" clip-rule="evenodd" fill="#FFFFFF" d="M449.201,27.038c2.932,2.696,5.785,5.317,8.824,8.111
		c0-1.927,0-3.593,0-5.306c0.441,0,0.781,0,1.123,0c4.938,0,2.182,0.017,7.121-0.005c4.502-0.02,8.555-3.503,8.975-7.979
		l0.049-9.627c-1.395,1.378-5.545,5.052-5.545,5.052s0-0.562,0,2.964c0,2.479-1.512,3.966-3.951,3.968c-4.812,0.001-1.934,0-6.746,0
		c-0.332,0-0.662,0-1.066,0c0-1.759,0-3.398,0-5.256C454.98,21.724,452.127,24.348,449.201,27.038z"/>
</g>
<path fill-rule="evenodd" clip-rule="evenodd" fill="#FFFFFF" d="M503.973,32.584c4.311-4.691,8.504-9.252,12.973-14.111
	c-3.082,0-3.938,0-7.361,0c0-0.709,0-16.512,0-17.057h-11.251c0,0.529,0,16.475,0,17.121c-3.516,0-4.309,0-7.277,0
	C495.473,23.34,499.669,27.905,503.973,32.584z"/>
</svg>
