<?xml version="1.0" encoding="utf-8"?>
<svg version="1.1" xmlns="http://www.w3.org/2000/svg" xmlns:xlink="http://www.w3.org/1999/xlink" x="0px" y="0px" viewBox="0 0 398.6 138.7" xml:space="preserve">
	<defs>
		<style type="text/css">
		 .sprite { display: none; }
		 .sprite:target { display: inline; }
		 .white{ fill:white; stroke:white; stroke-width: 2px;}
		 .letter { fill:#313234; }
		 .letterO { fill:#404041; }
		 .iOrnament { fill:#F7952C; }
		 .oOrnament { fill:#F05A28; }
		 .drop { fill:#1B75BB; }
		</style>
		
		<symbol id="L1-def">
			<path d="M157.5,115.1c-3.2-5.2-3.3-10.7-3.3-10.7v-90l-13.5,5v85 c0,11.8,8.1,34.1,38.8,34.1V125C169,125,161.6,121.7,157.5,115.1"/>
		</symbol>
		<symbol id="I-def">
			<path d="M201.1,107.4V57l-13.5,5v45.3c0,1.2,0.2,11.9,8.9,20.7 c6.9,7,17,10.5,29.9,10.5V125C202.6,125,201.1,110.3,201.1,107.4"/>
		</symbol>
		<symbol id="L2-def">
			<path d="M254.3,115.1c-3.1-5.1-3.2-10.6-3.2-10.7V28.2h-0.5L237.7,33v71.3 c0,0.6-0.1,13.7,9.7,23.6c6.9,7,16.7,10.6,29.1,10.6V125C265.8,125,258.3,121.7,254.3,115.1"/>
		</symbol>
		<symbol id="O-def">
			<path d="M319.6,67.7c-15.9,0-28.8,12.9-28.8,28.8s12.9,28.8,28.8,28.8 s28.8-12.9,28.8-28.8S335.5,67.7,319.6,67.7 M319.6,138.7c-23.3,0-42.3-19-42.3-42.3c0-23.3,19-42.3,42.3-42.3 c23.3,0,42.3,19,42.3,42.3C361.9,119.7,342.9,138.7,319.6,138.7"/>
		</symbol>
		<symbol id="oOrnament-def">
			<path d="M335.7,20.2c-2.4-0.2-4.5,1.7-4.6,4.1l-0.8,13.7 c-0.1,1.7,1.1,3.2,2.7,3.5c0.2,0,0.5,0.1,0.7,0.1c1.6,0,3-1.1,3.3-2.7l2.7-13.4c0-0.2,0.1-0.4,0.1-0.6 C339.9,22.4,338.1,20.3,335.7,20.2"/>
			<path d="M378,47.5c0.8-0.9,1.1-2,1.1-3.2c-0.1-1.2-0.6-2.2-1.5-3 c-0.8-0.7-1.8-1.1-2.9-1.1c-1.3,0-2.5,0.5-3.3,1.5l-9,10.3c-1.1,1.3-1.1,3.2,0,4.5c0.6,0.7,1.6,1.2,2.6,1.2h0 c0.8,0,1.6-0.3,2.2-0.8l10.3-9C377.7,47.8,377.9,47.6,378,47.5"/>
			<path d="M398.5,81.8c-0.5-2-2.2-3.4-4.3-3.4c-0.3,0-0.7,0-1,0.1l-13.3,3.1 c-1.6,0.4-2.8,1.9-2.6,3.6c0.2,1.8,1.6,3.1,3.4,3.1h0c0.1,0,0.2,0,0.3,0l13.6-1.2c0.2,0,0.4-0.1,0.6-0.1c1.1-0.3,2.1-1,2.7-1.9 C398.6,84.1,398.8,82.9,398.5,81.8"/>
		</symbol>
		<symbol id="iOrnament-def">
			<path d="M194.3,12.6c-4.8,0-8.8,3.9-8.8,8.8c0,4.8,3.9,8.8,8.8,8.8 s8.8-3.9,8.8-8.8C203.1,16.5,199.1,12.6,194.3,12.6 M194.3,38.7c-9.6,0-17.4-7.8-17.4-17.4c0-9.6,7.8-17.4,17.4-17.4 c9.6,0,17.4,7.8,17.4,17.4C211.7,30.9,203.9,38.7,194.3,38.7"/>
		</symbol>
		<symbol id="drop-def">
			<path d="M48.3,20.9c2.2-2.2,4.2-2.1,4.2-2.1s2.2-0.1,4.4,2.3 c9.3,10,24.5,29.2,30.9,48.2c-2.9,1-5.8,2.8-8.5,5.5c-4.5,4.5-7.7,4.5-12.1,0c-8.5-8.5-18.3-8.5-26.8,0c-4.5,4.5-7.7,4.5-12.1,0 c-3.7-3.7-7.6-5.8-11.5-6.3C21.3,54.5,31.9,38.6,48.3,20.9 M103.5,76.5c-5.5-34.6-39.9-68-41.3-69.4l-4.7-4.6 c0,0-0.1-0.1-0.1-0.1c-2.5-2.4-5-2.4-5-2.4s-2.5-0.1-5,2.4c0,0-0.1,0.1-0.1,0.1l-4.7,4.9C16.1,34.8,1.9,59.4,0.4,80.4 C0.1,82.7,0,84.7,0,86.7c0,28.6,23.4,51.9,52.2,51.9c28.8,0,52.2-23.3,52.2-51.9C104.5,83.2,104.1,79.8,103.5,76.5"/>
		</symbol>
	</defs>

	<g id="lilo-logo">
		<use class="drop" href="#drop-def"  />
		<use class="letter" href="#L1-def"  />
		<use class="letter" href="#I-def"  />
		<use class="letter" href="#L2-def"  />
		<use class="letterO" href="#O-def"  />
		<use class="iOrnament" href="#iOrnament-def"  />
		<use class="oOrnament" href="#oOrnament-def"  />
	</g>
	
	<g id="lilo-logo-white" class="sprite white">
		<use href="#drop-def"  />
		<use href="#L1-def"  />
		<use href="#I-def"  />
		<use href="#L2-def"  />
		<use href="#O-def"  />
		<use href="#iOrnament-def"  />
		<use href="#oOrnament-def"  />
	</g>

</svg>