<?xml version="1.0" encoding="utf-8"?>
<!-- Generator: Adobe Illustrator 16.0.0, SVG Export Plug-In . SVG Version: 6.00 Build 0)  -->
<!DOCTYPE svg PUBLIC "-//W3C//DTD SVG 1.1//EN" "http://www.w3.org/Graphics/SVG/1.1/DTD/svg11.dtd">
<svg version="1.1" id="Layer_1" xmlns="http://www.w3.org/2000/svg" xmlns:xlink="http://www.w3.org/1999/xlink" x="0px" y="0px"
	 width="80px" height="45px" viewBox="0 0 80 45" enable-background="new 0 0 80 45" xml:space="preserve">
<g>
	<g>
		<path d="M32.426,1.01h2.67c0.996,0.012,1.26,0.023,1.619,0.129c0.753,0.221,1.314,0.887,1.314,1.705
			c0,0.328-0.105,0.729-0.318,1.014c-0.234,0.309-0.531,0.469-0.932,0.543c0.825,0.146,1.597,0.814,1.597,1.967
			c0,0.861-0.434,1.623-1.333,1.939c-0.479,0.17-0.847,0.18-1.695,0.18h-2.923L32.426,1.01L32.426,1.01z M33.813,2.154v1.863h0.477
			c0.392,0,0.678,0,0.849-0.01c0.349,0,0.698-0.01,0.953-0.15c0.297-0.146,0.498-0.434,0.498-0.771c0-0.287-0.15-0.57-0.435-0.742
			c-0.296-0.17-0.445-0.178-1.461-0.189L33.813,2.154L33.813,2.154z M33.813,5.066v2.215h1.376c0.826,0,1.049,0,1.408-0.256
			c0.191-0.137,0.34-0.424,0.34-0.783c0-0.17-0.032-0.371-0.139-0.562c-0.336-0.604-1.123-0.604-1.598-0.604L33.813,5.066z"/>
		<path d="M44.585,7.025h-2.809l-0.432,1.461h-1.496l2.522-7.477h1.588l2.554,7.477h-1.494L44.585,7.025z M44.216,5.807
			l-1.031-3.441l-1.037,3.441H44.216z"/>
		<path d="M48.397,1.01h2.385c0.992,0.012,1.662,0.012,2.316,0.543c0.469,0.379,0.826,0.971,0.826,1.84
			c0,1.43-1.048,1.93-1.473,2.055l1.663,3.039h-1.597l-1.482-2.773h-1.25v2.773h-1.389V1.01L48.397,1.01z M49.784,2.217v2.344h0.488
			c0.478,0,0.656-0.014,0.922-0.023c0.307-0.012,1.312-0.062,1.312-1.154c0-0.158-0.008-0.711-0.592-1.006
			c-0.297-0.148-0.657-0.16-1.483-0.16L49.784,2.217L49.784,2.217z"/>
		<path d="M56.301,1.01h2.382c0.996,0.012,1.664,0.012,2.32,0.543c0.467,0.379,0.826,0.971,0.826,1.84
			c0,1.43-1.049,1.93-1.473,2.055l1.662,3.039h-1.602l-1.48-2.773h-1.25v2.773h-1.388L56.301,1.01L56.301,1.01z M57.687,2.217v2.344
			h0.487c0.478,0,0.657-0.014,0.923-0.023c0.307-0.012,1.313-0.062,1.313-1.154c0-0.158-0.011-0.711-0.597-1.006
			c-0.295-0.148-0.654-0.16-1.479-0.16L57.687,2.217L57.687,2.217z"/>
		<path d="M65.544,2.26v1.758h3.604v1.207h-3.604v2.004h4.207v1.258h-5.58V1.01h5.314v1.25H65.544z"/>
		<path d="M73.302,7.217h2.965v1.27h-4.375V1h1.41V7.217z"/>
	</g>
	<g>
		<path d="M8.856,1.01L8.856,1.01H1v7.857v7.854h7.856l0,0V8.867h7.858C16.714,4.529,13.196,1.01,8.856,1.01z"/>
		<path d="M8.856,25.285L8.856,25.285H1v7.857v7.855h7.856l0,0v-7.855h7.858C16.714,28.803,13.196,25.285,8.856,25.285z"/>
	</g>
</g>
</svg>
